<svg width="29" height="26" viewBox="0 0 29 26" fill="none" xmlns="http://www.w3.org/2000/svg">
<path d="M27.9337 0.0625381C27.8051 0.115486 27.5782 0.319715 27.4193 0.508816C26.9882 1.0383 26.0048 1.73419 24.9913 2.22585C22.5405 3.42853 19.0157 4.17737 14.7345 4.41942C12.9872 4.51775 12.4274 4.58582 11.2172 4.87326C4.89366 6.37093 1.12677 9.87308 0.173707 15.1376C0.00729838 16.0453 -0.0532138 17.9136 0.0526825 18.7457C0.143451 19.5021 0.347679 19.8652 0.786393 20.0467C1.39151 20.2963 1.7092 20.1677 2.66227 19.2525C4.90122 17.1194 7.88145 15.4402 10.9222 14.593C13.1082 13.9803 14.2957 13.5492 15.7026 12.8533C16.459 12.4751 17.0793 12.1725 17.0793 12.1877C17.0793 12.1952 16.7465 12.4448 16.338 12.7323C14.6512 13.9274 12.6846 15.0696 10.0372 16.4084C7.57889 17.6565 6.42915 18.4356 4.71969 20.0164C4.05405 20.6291 2.91188 21.8772 2.69253 22.2327C2.38997 22.7319 2.57907 23.4051 3.1388 23.8136C4.94661 25.1448 8.13106 25.9466 10.8012 25.75C14.3184 25.4777 17.3289 23.9951 20.2184 21.0981C23.2137 18.0952 25.4829 14.1089 27.2 8.80655C28.1682 5.81876 29.1893 1.02317 28.9699 0.470995C28.8187 0.0927944 28.3119 -0.111435 27.9337 0.0625381Z" fill="white"/>
</svg>
