<svg width="53" height="53" viewBox="0 0 53 53" fill="none" xmlns="http://www.w3.org/2000/svg">
<circle cx="26.5" cy="26.5" r="26.5" fill="#5F6161"/>
<path d="M19.1336 20.1335C19.595 19.6721 20.343 19.6721 20.8044 20.1335L34.1935 33.5226C34.6549 33.984 34.6549 34.7319 34.1935 35.1932C33.7321 35.6546 32.9841 35.6546 32.5227 35.1932L19.1336 21.8042C18.6723 21.3428 18.6723 20.5948 19.1336 20.1335Z" fill="white"/>
<path d="M33.3583 19C34.0107 19 34.5397 19.529 34.5397 20.1814V34.3582C34.5397 35.0106 34.0107 35.5396 33.3583 35.5396H19.1815C18.529 35.5396 18.0001 35.0106 18.0001 34.3582C18.0001 33.7056 18.529 33.1768 19.1815 33.1768H32.1769V20.1814C32.1769 19.529 32.7057 19 33.3583 19Z" fill="white"/>
</svg>
