<svg width="60" height="58" viewBox="0 0 60 58" fill="none" xmlns="http://www.w3.org/2000/svg">
<g opacity="0.3">
<path d="M42.4219 4.57031C37.1016 7.07812 32.5313 9.24609 32.25 9.36328L31.7461 9.58594L31.3828 8.83594C31.1719 8.41406 30.9727 8.07422 30.9258 8.07422C30.8555 8.07422 20.4844 12.9844 20.4141 13.043C20.4024 13.0664 20.5547 13.4297 20.7422 13.8633C20.9414 14.3086 21.0938 14.6719 21.0703 14.6836C21.0469 14.6953 20.4844 14.9648 19.8047 15.2812C19.125 15.5977 18.5508 15.8789 18.5274 15.8906C18.4805 15.9258 19.9336 19.0898 19.9922 19.0898C20.0039 19.0898 20.5781 18.8203 21.2695 18.5039C21.9609 18.1758 22.5586 17.918 22.6172 17.918C22.875 17.918 23.3555 19.5117 23.9063 22.1953C24.2227 23.8125 24.5156 25.2422 24.5508 25.3828L24.6094 25.6523H30.5156H36.4102L38.9063 24.4453L41.3906 23.25L37.6758 18.7383C34.4063 14.7656 33.1172 13.0078 33.3164 12.8086C33.3399 12.7852 37.8867 10.6172 43.4297 8.01562C48.9609 5.40234 53.5313 3.22266 53.5781 3.17578C53.6602 3.09375 52.2656 -0.0117188 52.1484 0C52.1133 0 47.7422 2.0625 42.4219 4.57031Z" fill="white"/>
<path d="M21.2109 33.469C21.2109 35.8479 21.1523 38.3557 21.0938 39.0588C20.8594 41.4963 20.2734 43.594 19.2539 45.6331C18.4453 47.2268 17.8828 48.0471 15.1992 51.469C13.1484 54.094 12.7734 54.6448 12.9023 54.7737C13.0898 54.9377 16.7344 57.6682 16.957 57.7971C17.0391 57.8557 18.4922 56.8127 20.6133 55.1838C22.5586 53.6956 24.1875 52.5002 24.2461 52.5354C24.293 52.5706 24.9844 53.6838 25.7812 55.0081L27.2227 57.4104H30H32.7773L34.2422 54.9729C35.0391 53.637 35.7539 52.5471 35.8359 52.5471C35.9062 52.5471 37.5117 53.7307 39.3984 55.1838C41.2852 56.637 42.8906 57.8088 42.9609 57.8088C43.1953 57.7854 47.3555 54.5862 47.2852 54.4807C47.25 54.4338 46.2539 53.1799 45.0586 51.7034C43.8633 50.2385 42.5625 48.5627 42.1758 47.9768C40.3711 45.2698 39.2344 42.012 38.9062 38.6018C38.8477 37.887 38.7891 35.4846 38.7891 33.2346V29.1682H30H21.2109V33.469Z" fill="white"/>
<path d="M7.73438 35.8711C7.73438 38.6016 7.67578 41.332 7.61719 41.9414C7.44141 43.6055 6.99609 45.1055 6.23438 46.6523L5.54297 48.0352H9.49219H13.4297L14.3906 46.7695C15.9609 44.6836 16.8516 42.7852 17.3555 40.3945C17.5898 39.293 17.6133 38.8359 17.625 35.0859L17.6367 30.9844L12.6914 30.9492L7.73438 30.9258V35.8711Z" fill="white"/>
<path d="M42.3398 31.1016C42.3047 31.207 42.3047 32.9297 42.3398 34.9453C42.375 37.6172 42.4453 38.8828 42.5859 39.6562C43.1016 42.4805 44.2852 45.0938 46.1016 47.4141L46.582 48.0234H51.1055L55.6172 48.0352L54.9492 46.6523C54.1406 45.0234 53.707 43.5234 53.5547 41.7656C53.4961 41.0508 53.4375 38.332 53.4375 35.6953V30.9258H47.9297C43.0781 30.9258 42.4102 30.9492 42.3398 31.1016Z" fill="white"/>
<path d="M0 53.3086V55.0664H3.97266H7.93359L8.90625 53.8008C9.44531 53.1094 10.0664 52.3242 10.2891 52.043L10.6875 51.5508H5.34375H0V53.3086Z" fill="white"/>
<path d="M49.5703 51.6211C49.5703 51.6562 50.1914 52.4414 50.9414 53.3789L52.3125 55.0664H56.1562H60V53.3086V51.5508H54.7852C51.9141 51.5508 49.5703 51.5859 49.5703 51.6211Z" fill="white"/>
</g>
</svg>
