<svg width="60" height="58" viewBox="0 0 60 58" fill="none" xmlns="http://www.w3.org/2000/svg">
<path d="M42.4218 4.57043C37.1015 7.07825 32.5311 9.24622 32.2499 9.3634L31.746 9.58606L31.3827 8.83606C31.1718 8.41418 30.9725 8.07434 30.9257 8.07434C30.8554 8.07434 20.4843 12.9845 20.414 13.0431C20.4022 13.0665 20.5546 13.4298 20.7421 13.8634C20.9413 14.3087 21.0936 14.672 21.0702 14.6837C21.0468 14.6954 20.4843 14.965 19.8046 15.2814C19.1249 15.5978 18.5507 15.879 18.5272 15.8907C18.4804 15.9259 19.9335 19.09 19.9921 19.09C20.0038 19.09 20.578 18.8204 21.2694 18.504C21.9608 18.1759 22.5585 17.9181 22.6171 17.9181C22.8749 17.9181 23.3554 19.5118 23.9061 22.1954C24.2225 23.8126 24.5155 25.2423 24.5507 25.3829L24.6093 25.6525H30.5155H36.41L38.9061 24.4454L41.3905 23.2501L37.6757 18.7384C34.4061 14.7657 33.1171 13.0079 33.3163 12.8087C33.3397 12.7853 37.8866 10.6173 43.4296 8.01575C48.9608 5.40247 53.5311 3.22278 53.578 3.1759C53.66 3.09387 52.2655 -0.0115967 52.1483 0.00012207C52.1132 0.00012207 47.7421 2.06262 42.4218 4.57043Z" fill="#23B77F"/>
<path d="M21.2112 33.4688C21.2112 35.8477 21.1526 38.3555 21.094 39.0586C20.8596 41.4961 20.2737 43.5938 19.2542 45.6328C18.4456 47.2266 17.8831 48.0469 15.1995 51.4688C13.1487 54.0938 12.7737 54.6445 12.9026 54.7734C13.0901 54.9375 16.7346 57.668 16.9573 57.7969C17.0393 57.8555 18.4924 56.8125 20.6135 55.1836C22.5588 53.6953 24.1877 52.5 24.2463 52.5352C24.2932 52.5703 24.9846 53.6836 25.7815 55.0078L27.2229 57.4102H30.0002H32.7776L34.2424 54.9727C35.0393 53.6367 35.7542 52.5469 35.8362 52.5469C35.9065 52.5469 37.512 53.7305 39.3987 55.1836C41.2854 56.6367 42.8909 57.8086 42.9612 57.8086C43.1956 57.7852 47.3557 54.5859 47.2854 54.4805C47.2502 54.4336 46.2542 53.1797 45.0588 51.7031C43.8635 50.2383 42.5627 48.5625 42.176 47.9766C40.3713 45.2695 39.2346 42.0117 38.9065 38.6016C38.8479 37.8867 38.7893 35.4844 38.7893 33.2344V29.168H30.0002H21.2112V33.4688Z" fill="#23B77F"/>
<path d="M7.73438 35.8712C7.73438 38.6017 7.67578 41.3322 7.61719 41.9415C7.44141 43.6056 6.99609 45.1056 6.23438 46.6525L5.54297 48.0353H9.49219H13.4297L14.3906 46.7697C15.9609 44.6837 16.8516 42.7853 17.3555 40.3947C17.5898 39.2931 17.6133 38.8361 17.625 35.0861L17.6367 30.9845L12.6914 30.9493L7.73438 30.9259V35.8712Z" fill="#23B77F"/>
<path d="M42.3398 31.1017C42.3047 31.2072 42.3047 32.9298 42.3398 34.9454C42.375 37.6173 42.4453 38.8829 42.5859 39.6564C43.1016 42.4806 44.2852 45.0939 46.1016 47.4142L46.582 48.0236H51.1055L55.6172 48.0353L54.9492 46.6525C54.1406 45.0236 53.707 43.5236 53.5547 41.7657C53.4961 41.0509 53.4375 38.3322 53.4375 35.6954V30.9259H47.9297C43.0781 30.9259 42.4102 30.9493 42.3398 31.1017Z" fill="#23B77F"/>
<path d="M0 53.3087V55.0665H3.97266H7.93359L8.90625 53.8009C9.44531 53.1095 10.0664 52.3243 10.2891 52.0431L10.6875 51.5509H5.34375H0V53.3087Z" fill="#23B77F"/>
<path d="M49.5703 51.6212C49.5703 51.6564 50.1914 52.4415 50.9414 53.379L52.3125 55.0665H56.1562H60V53.3087V51.5509H54.7852C51.9141 51.5509 49.5703 51.5861 49.5703 51.6212Z" fill="#23B77F"/>
</svg>
