<svg width="38" height="26" viewBox="0 0 38 26" fill="none" xmlns="http://www.w3.org/2000/svg">
<path d="M0 7.78538V14.1697C0 14.9389 0.623577 15.5625 1.3928 15.5625C2.92246 15.5625 3.16398 15.4981 3.40551 15.0231C3.51822 14.8138 6.96398 3.55868 7.17331 2.7375C7.25382 2.41546 7.24576 2.30275 7.125 1.99682C6.96398 1.55402 6.73856 1.38495 5.82076 1.03877C4.32331 0.459106 2.80975 0.145123 1.03856 0.0565634C0.474315 0.0259457 0 0.47522 0 1.04029V7.78538Z" fill="white"/>
<path d="M19.3622 1.85139C17.8567 2.05266 15.6186 3.59037 14.0889 5.45817C12.9296 6.89122 12.4707 7.79292 12.4143 8.77512C12.3821 9.37893 12.3982 9.46749 12.5834 9.78953C12.8974 10.3209 13.5656 10.5544 14.3385 10.4094C14.9987 10.2806 15.691 9.92639 16.2627 9.41919C17.5347 8.28402 19.3139 7.41453 20.1351 7.52724C20.28 7.54334 21.9144 8.98444 25.4889 12.2611C28.3148 14.8535 30.7059 17.0353 30.8025 17.1158C30.9796 17.2527 31.0038 17.2446 31.4466 17.0836C31.8008 16.9467 32.0504 16.7696 32.5012 16.3188C32.8233 15.9967 33.0889 15.6747 33.0889 15.6103C33.0889 15.4654 29.4016 5.40182 29.3211 5.32131C29.1762 5.18444 20.8838 1.95605 20.4813 1.88359C20.0224 1.79504 19.8211 1.78698 19.3622 1.85139Z" fill="white"/>
<path d="M35.6652 2.00528C35.5525 2.02139 35.1419 2.07774 34.7394 2.12605C33.2741 2.30317 30.722 3.02774 30.3356 3.38198C30.0941 3.59935 29.933 3.96969 29.933 4.29173C29.9411 4.69427 34.4013 16.8188 34.6347 17.0765C34.997 17.4629 35.1661 17.4951 36.6313 17.4951C37.3872 17.4951 38 16.8824 38 16.1265V9.72605V3.01972C38 2.43409 37.5229 1.96059 36.9373 1.96503C36.3496 1.97308 35.778 1.98918 35.6652 2.00528Z" fill="white"/>
<path d="M7.65638 3.90467C7.61612 4.04959 6.93985 6.27967 6.15892 8.86399L4.73392 13.5576L5.36993 14.2581C6.38434 15.3852 8.63053 17.5831 10.1441 18.9356C13.4047 21.85 18.0339 25.4809 18.6377 25.5937C19.4911 25.7547 20.2479 24.9898 20.0869 24.1204C20.0386 23.8547 19.781 23.5568 18.1466 21.9144C16.931 20.6907 16.2627 19.9581 16.2627 19.8534C16.2627 19.6763 16.4962 19.4267 16.6733 19.4267C16.7377 19.4267 17.8004 20.4411 19.0403 21.6809C21.4797 24.1284 21.6327 24.2331 22.3411 24.1606C23.3233 24.0479 23.9432 22.9691 23.5568 22.0513C23.4924 21.9064 22.5504 20.8598 21.4636 19.7246C20.2962 18.5089 19.4831 17.5992 19.4831 17.5106C19.4831 17.3335 19.7246 17.092 19.9098 17.092C19.9742 17.092 21.0932 18.1869 22.3814 19.5233C23.6695 20.8678 24.861 22.0432 25.0221 22.1398C25.3521 22.3411 25.9882 22.3894 26.3827 22.2365C26.8899 22.0432 27.3649 21.3589 27.3729 20.8115C27.3729 20.2318 27.1958 20.0144 24.6356 17.4945C23.2589 16.142 22.1399 14.9907 22.1399 14.9343C22.1399 14.7975 22.4377 14.5157 22.5827 14.5157C22.6471 14.5157 23.9835 15.7555 25.5373 17.261C28.6127 20.2479 28.7738 20.3767 29.4581 20.2801C30.4483 20.1432 31.0441 19.0725 30.6174 18.1788C30.5288 17.9856 28.8301 16.3835 25.4729 13.3081C22.7276 10.7881 20.3606 8.63052 20.2157 8.50976L19.9581 8.29239L19.4428 8.42925C18.7343 8.62247 17.7763 9.19408 16.9632 9.8945C16.2627 10.4903 15.4496 10.9653 14.8216 11.1343C14.6284 11.1826 14.2017 11.2229 13.8716 11.2229C11.7865 11.2148 10.9733 9.25849 12.1165 6.98815C12.4949 6.23942 13.3 5.1284 14.0487 4.30721L14.6606 3.64705H11.1987H7.74494L7.65638 3.90467Z" fill="white"/>
</svg>
