<svg width="60" height="59" viewBox="0 0 60 59" fill="none" xmlns="http://www.w3.org/2000/svg">
<path d="M6.01705 0.15174C5.38227 0.464784 5.00836 1.33435 5.20836 2.01261C5.35618 2.50826 5.86053 3.00392 6.33879 3.13435C7.24314 3.37783 8.09531 2.87348 8.33879 1.95174C8.5214 1.25609 8.05184 0.35174 7.36488 0.0995662C7.00836 -0.0395641 6.34749 -0.0134773 6.01705 0.15174Z" fill="#23B77F"/>
<path d="M20.0868 0.161853C19.9216 0.24881 19.6694 0.474897 19.5216 0.64881C19.2868 0.944462 19.2607 1.04011 19.2607 1.55316C19.2607 2.22272 19.4694 2.61403 19.9912 2.96185C20.426 3.25751 21.2173 3.25751 21.6607 2.96185C22.6347 2.31838 22.6868 0.996636 21.7738 0.292288C21.3564 -0.0207555 20.539 -0.0903208 20.0868 0.161853Z" fill="#23B77F"/>
<path d="M41.0873 0.231758C40.6438 0.52741 40.4699 0.762193 40.3482 1.19698C40.209 1.67524 40.2873 2.07524 40.609 2.51002C41.4177 3.62306 43.096 3.31872 43.4699 1.98828C43.6612 1.31002 43.2786 0.483932 42.6004 0.12741C42.1917 -0.081286 41.4699 -0.0291119 41.0873 0.231758Z" fill="#23B77F"/>
<path d="M2.59172 6.20383C1.77433 6.56905 1.4352 7.54296 1.8265 8.37774C2.15694 9.0734 2.93954 9.42992 3.66128 9.22992C4.11346 9.09948 4.2352 9.02122 4.54824 8.60383C5.13955 7.82122 4.81781 6.58644 3.93954 6.22122C3.57433 6.0647 2.92215 6.0647 2.59172 6.20383Z" fill="#23B77F"/>
<path d="M9.60836 6.19671C9.3301 6.34454 8.94749 6.72715 8.81705 6.97932C8.74749 7.10976 8.69531 7.4228 8.69531 7.68367C8.69531 9.10976 10.4344 9.8315 11.4171 8.79671C11.9388 8.24889 12.0431 7.63149 11.7301 6.97932C11.4605 6.4228 10.904 6.09236 10.2692 6.09236C9.99966 6.09236 9.70401 6.14454 9.60836 6.19671Z" fill="#23B77F"/>
<path d="M23.5047 6.31028C22.9916 6.62332 22.7568 7.04071 22.7568 7.64941C22.7568 8.20593 22.9134 8.57984 23.3047 8.91028C24.3481 9.77984 25.9134 9.05811 25.9134 7.70158C25.9134 7.16245 25.8351 6.95376 25.4873 6.58854C25.1568 6.22332 24.8438 6.09289 24.3307 6.09289C23.9916 6.09289 23.7742 6.15376 23.5047 6.31028Z" fill="#23B77F"/>
<path d="M30.5918 6.26682C29.9918 6.58856 29.6701 7.25812 29.7831 7.97986C29.8614 8.48421 30.4092 9.07552 30.9397 9.21465C31.6005 9.39726 32.3223 9.14508 32.7136 8.58856C32.8788 8.36247 32.9136 8.19726 32.9136 7.68421C32.9136 7.11899 32.8875 7.03204 32.644 6.73639C32.4962 6.55378 32.2614 6.33638 32.1223 6.25812C31.7744 6.04943 31.0005 6.05812 30.5918 6.26682Z" fill="#23B77F"/>
<path d="M51.6525 6.27423C50.9655 6.67423 50.6611 7.67423 51.009 8.39597C51.4351 9.29162 52.7046 9.55249 53.4785 8.90901C54.0872 8.39597 54.2264 7.47423 53.7916 6.82205C53.3307 6.1177 52.3481 5.86553 51.6525 6.27423Z" fill="#23B77F"/>
<path d="M13.3911 12.2071C12.4519 12.4854 11.9389 13.5115 12.2954 14.3637C12.5302 14.9289 13.2346 15.3984 13.8259 15.3984C14.2867 15.3984 14.8693 15.0593 15.1389 14.6245C15.3389 14.3202 15.3911 14.1289 15.3911 13.7637C15.3911 13.2419 15.3128 13.0419 14.9302 12.6332C14.7041 12.3984 13.965 12.068 13.7476 12.1028C13.7215 12.1115 13.5563 12.155 13.3911 12.2071Z" fill="#23B77F"/>
<path d="M20.4438 12.1946C19.8959 12.3163 19.3394 12.8989 19.2611 13.4206C19.122 14.3598 19.5742 15.0815 20.4611 15.325C21.4264 15.5772 22.4351 14.7598 22.4351 13.725C22.4351 13.0989 21.9046 12.3946 21.3046 12.2206C20.9046 12.1163 20.8264 12.1076 20.4438 12.1946Z" fill="#23B77F"/>
<path d="M35.9131 12.7801C35.9131 12.8236 36.0435 12.9541 36.2 13.0671C36.5827 13.3628 37.8174 14.641 38.2783 15.2236C39.8348 17.1801 41.2696 19.8497 42.2522 22.6497C42.4087 23.0845 42.5653 23.4758 42.6174 23.5367C42.6783 23.6149 43.6348 23.6323 46.5914 23.6149C48.7305 23.5975 50.5044 23.5801 50.5392 23.5801C50.5653 23.5715 50.6783 23.2932 50.7827 22.9454C51.3392 21.1106 52.8783 18.8671 55.1827 16.5193C55.774 15.9106 56.2609 15.3888 56.2609 15.3541C56.2609 15.241 53.7479 15.3801 53.0435 15.528C50.7305 16.0236 48.8174 17.1367 47.5305 18.7193C47.3479 18.9541 47.1653 19.1367 47.1305 19.1367C47.0957 19.1367 46.9566 18.9193 46.8261 18.641C46.087 17.1454 44.6609 15.528 43.2261 14.5714C41.7913 13.6149 40.5653 13.1367 38.7827 12.8323C37.974 12.6932 35.9131 12.6584 35.9131 12.7801Z" fill="#23B77F"/>
<path d="M9.52131 18.4306C8.73 18.9175 8.47783 19.761 8.87783 20.5958C9.14739 21.1349 9.59957 21.4132 10.2343 21.4219C10.9996 21.4219 11.5909 21.0306 11.817 20.361C11.9909 19.8219 11.9213 19.4132 11.5387 18.848C11.1648 18.3001 10.0865 18.074 9.52131 18.4306Z" fill="#23B77F"/>
<path d="M16.4694 18.4936C16.0433 18.7892 15.9476 18.9109 15.7737 19.424C15.3302 20.7457 16.8085 21.9109 18.0955 21.2588C18.6433 20.9805 19.0259 20.1979 18.9128 19.5892C18.7042 18.4936 17.365 17.8849 16.4694 18.4936Z" fill="#23B77F"/>
<path d="M23.5656 18.4323C23.4004 18.5193 23.1482 18.7541 23.0178 18.9541C22.8091 19.2497 22.7656 19.415 22.7656 19.8237C22.7656 20.3976 22.9135 20.7541 23.3048 21.0845C24.0265 21.6932 25.1221 21.528 25.67 20.7367C25.8613 20.4671 25.9048 20.3019 25.9135 19.8845C25.9135 19.2497 25.6874 18.8237 25.1917 18.5019C24.7482 18.215 24.0352 18.1802 23.5656 18.4323Z" fill="#23B77F"/>
<path d="M0.0608696 26.0644C0.026087 26.0905 0 28.3949 0 31.1862V36.247L2.08696 37.5775C3.24348 38.3166 4.4 39.0557 4.67826 39.2297C7.52174 41.0383 8.13913 41.421 8.24348 41.4297C8.31305 41.4383 9.15653 39.8644 10.3652 37.4905L12.3652 33.534L12.2261 33.2731C12.1565 33.1253 11.9652 32.7862 11.8174 32.5253C11.6609 32.2644 11.4261 31.8296 11.2783 31.5688C11.1304 31.3079 10.6783 30.4818 10.2609 29.7427C9.84348 29.0036 9.35653 28.1166 9.17392 27.7862C8.99131 27.447 8.74783 27.0296 8.63479 26.8557C8.52174 26.6731 8.43479 26.4992 8.43479 26.4557C8.43479 26.4209 8.35653 26.2992 8.26087 26.1949L8.07827 26.0036H4.09565C1.90435 26.0036 0.0869566 26.0296 0.0608696 26.0644Z" fill="#23B77F"/>
<path d="M11.0869 26.0907C11.0609 26.1429 11.5478 27.1081 12.1826 28.2472C12.8174 29.3777 13.4695 30.5603 13.6348 30.8733C13.8 31.1864 14.0087 31.5429 14.1043 31.6733C14.1913 31.795 14.2609 31.9429 14.2609 31.9864C14.2609 32.2211 14.4174 32.2037 19.6782 31.395C19.9739 31.3516 20.6696 31.2559 21.2174 31.1777C21.7652 31.1081 22.4609 31.0037 22.7565 30.9516L23.2956 30.8559L24.7478 28.6037C25.5391 27.3603 26.2 26.282 26.2087 26.195C26.2174 26.0559 25.7391 26.0472 18.6782 26.0211C13.6435 26.0124 11.1217 26.0298 11.0869 26.0907Z" fill="#23B77F"/>
<path d="M29.1998 26.1513C29.0346 26.3426 25.9476 31.16 25.765 31.5166C25.6433 31.7513 25.6433 31.7861 25.7824 31.8905C25.8694 31.9513 26.0433 32.0905 26.165 32.2035C26.2868 32.3079 26.8433 32.7687 27.3911 33.2209C27.9389 33.6731 28.4085 34.0644 28.4346 34.0905C28.4781 34.1427 29.765 35.1948 30.0085 35.3687C30.1128 35.4557 30.1998 35.447 30.4433 35.3166C30.6085 35.2296 31.6781 34.6818 32.8259 34.0905C35.7998 32.5687 36.5476 32.1687 36.6781 32.047C36.7737 31.96 36.7737 31.5948 36.7042 30.0818C36.652 29.0557 36.6085 27.7426 36.6085 27.1687C36.6085 26.2818 36.5824 26.0992 36.4694 26.0557C36.3911 26.0296 34.7563 26.0035 32.8346 26.0035C29.6085 26.0035 29.3215 26.0122 29.1998 26.1513Z" fill="#23B77F"/>
<path d="M39.0353 26.1088C39.0266 26.3871 39.0701 28.4654 39.1222 30.0393L39.1744 31.7784L40.3918 32.0132C41.0614 32.1436 41.844 32.2914 42.1309 32.3436C42.8614 32.474 44.8353 32.848 45.8266 33.048C46.2788 33.1349 46.9136 33.2567 47.2353 33.3175L47.8092 33.4219L48.6701 32.8132C49.1396 32.474 50.0353 31.8219 50.6527 31.361C51.2788 30.9001 52.2179 30.2132 52.7396 29.8306C53.2701 29.448 54.2266 28.7436 54.8701 28.2654C55.5136 27.7871 56.4005 27.1349 56.8353 26.8306C57.2788 26.5175 57.6527 26.2045 57.6875 26.1349C57.731 26.0219 56.6614 26.0045 48.3918 26.0045C40.9744 26.0045 39.044 26.0306 39.0353 26.1088Z" fill="#23B77F"/>
<path d="M57.8695 29.0655C56.7738 29.8655 55.3217 30.9264 54.6521 31.4133C53.9825 31.9003 53.0086 32.622 52.4782 33.0046C51.9564 33.3959 51.2173 33.9351 50.8521 34.2046C50.4782 34.4829 50.1738 34.7351 50.1738 34.7785C50.1738 34.822 50.6956 35.2742 51.3304 35.7959C51.9564 36.309 52.4956 36.7611 52.5217 36.7872C52.5477 36.822 52.7825 37.0133 53.0521 37.2307C53.3217 37.4394 53.7477 37.7959 54.0086 38.0133C54.2695 38.2307 55.4173 39.1872 56.5651 40.1351C57.713 41.0829 58.9217 42.0829 59.2521 42.3611C59.5825 42.6394 59.8869 42.8481 59.9304 42.822C60.0173 42.7698 60.026 27.822 59.9304 27.6916C59.8956 27.6307 59.1304 28.1351 57.8695 29.0655Z" fill="#23B77F"/>
<path d="M23.4693 33.2578C23.4519 33.2839 22.7301 33.3969 21.8693 33.5273C20.3649 33.7534 20.0519 33.7969 18.6084 33.9969C18.2519 34.0491 17.7041 34.1273 17.391 34.1795C17.078 34.2317 16.3823 34.3273 15.8432 34.3969C15.3041 34.4752 14.7823 34.5621 14.6867 34.6056C14.5562 34.6491 13.9562 35.7447 12.5562 38.4926C11.4867 40.5882 10.6171 42.3534 10.6084 42.4056C10.6084 42.4665 10.6954 42.5273 10.8084 42.5534C10.9127 42.5708 13.2693 43.1708 16.0432 43.8752C24.591 46.0404 25.078 46.1621 25.191 46.1186C25.2519 46.0926 25.3041 46.0317 25.3041 45.9795C25.3041 45.9273 25.478 45.423 25.6954 44.8578C25.9128 44.2926 26.2693 43.3534 26.4867 42.7621C26.7041 42.1795 27.0954 41.1534 27.3475 40.4839C27.5997 39.8143 27.9736 38.8404 28.1649 38.3273C28.3649 37.8056 28.4954 37.3447 28.4693 37.2926C28.391 37.1708 23.6345 33.223 23.5649 33.223C23.5301 33.223 23.4867 33.2404 23.4693 33.2578Z" fill="#23B77F"/>
<path d="M37.0865 34.5971C36.5648 34.8754 35.2517 35.5537 34.1735 36.1102C33.0952 36.6667 31.93 37.2754 31.5909 37.4493L30.9561 37.7798L30.4865 39.0058C29.9909 40.3015 29.443 41.7537 28.9126 43.1798C28.7387 43.658 28.5648 44.1276 28.5213 44.2232C28.4778 44.3189 28.2691 44.858 28.0604 45.4232C27.7126 46.3363 27.6865 46.4493 27.8083 46.5189C27.8952 46.5624 28.3909 46.6145 28.9126 46.6406C29.443 46.6667 30.417 46.7363 31.0865 46.7798C32.8257 46.9015 34.73 47.0406 35.3909 47.0928C36.5039 47.1798 38.4083 47.3189 39.5648 47.3972C40.2083 47.4406 40.9735 47.5015 41.2604 47.5276C41.8865 47.6059 41.8952 47.5972 42.1996 46.745C42.3213 46.4058 42.4604 46.0145 42.5213 45.8754C42.6865 45.4754 42.7039 45.4232 43.6518 42.9624C44.1387 41.6928 44.5648 40.5798 44.6083 40.4841C45.6604 37.8232 46.4344 35.7189 46.3735 35.658C46.3387 35.6232 45.8518 35.5015 45.3039 35.3971C43.1996 34.9971 42.9822 34.9624 42.5213 34.8754C42.2604 34.8232 41.3561 34.6493 40.5213 34.4928C38.0344 34.0058 38.2083 34.0058 37.0865 34.5971Z" fill="#23B77F"/>
<path d="M48.1913 37.8922C47.9478 38.5096 47.6347 39.3357 47.4782 39.7444C47.3304 40.1531 47.1652 40.5705 47.1217 40.6748C47.0782 40.7879 47.0087 40.9618 46.9652 41.0661C46.9217 41.1792 46.5217 42.2053 46.0869 43.3531C45.6521 44.5009 45.2608 45.5183 45.2173 45.614C44.5652 47.24 44.0869 48.5357 44.0869 48.6574C44.0869 48.7096 44.2087 48.9357 44.3652 49.1444C44.6782 49.5705 47.026 52.9096 49.1913 56.0053C49.9826 57.127 50.6782 58.1096 50.7478 58.1705C50.9217 58.3618 59.8869 58.3792 59.9565 58.1966C59.9826 58.1357 60 55.3966 60 52.1183V46.1618L59.7217 45.9009C59.5652 45.7531 58.7913 45.1009 58 44.4574C57.2087 43.8053 56.4261 43.1531 56.2521 43.014C56.0869 42.8661 55.8521 42.6661 55.7304 42.5705C54.7304 41.7444 53.513 40.7357 53.4782 40.7009C53.4521 40.6748 52.5565 39.927 51.4782 39.0487C50.4 38.1705 49.3565 37.3009 49.1565 37.1183C48.9478 36.9357 48.7478 36.7879 48.7043 36.7879C48.6608 36.7879 48.426 37.2835 48.1913 37.8922Z" fill="#23B77F"/>
<path d="M0 44.1015C0 47.1189 0.0347826 48.9623 0.0782609 48.9449C0.130435 48.9276 0.704348 48.4667 1.35652 47.9189C2.0087 47.371 2.93044 46.6058 3.39131 46.2232C5.4 44.5623 6.69566 43.458 6.69566 43.4058C6.68696 43.3797 6.4087 43.1797 6.06087 42.971C5.71305 42.7536 4.25218 41.8232 2.8 40.9015C1.35652 39.9797 0.130435 39.2232 0.0869566 39.2232C0.026087 39.2232 0 40.9189 0 44.1015Z" fill="#23B77F"/>
<path d="M8.16522 45.3801C7.66087 45.7975 6.31305 46.9192 5.17391 47.8757C4.03478 48.8322 2.82609 49.8409 2.48696 50.1192C2.14783 50.3975 1.77391 50.7105 1.65217 50.8148C1.53044 50.9279 1.11304 51.2757 0.721739 51.6062L0 52.1975V55.2322V58.267L0.373913 58.2757C1.53044 58.3192 21.7478 58.3366 22.0087 58.3018C22.3217 58.2583 22.3304 58.2496 22.4696 57.6322C22.5478 57.2844 22.6522 56.8496 22.6957 56.6583C22.7391 56.467 22.8348 56.0583 22.9044 55.7453C23.1217 54.7366 23.3913 53.5366 23.4783 53.1801C23.5217 52.9888 23.6957 52.1888 23.8696 51.3975C24.0435 50.6062 24.2609 49.6583 24.3478 49.2844C24.4435 48.9105 24.5217 48.5975 24.5217 48.5801C24.5217 48.5279 24.2435 48.4235 23.9131 48.354C23.7478 48.3192 22.2 47.9279 20.4783 47.4844C13.287 45.6583 9.97392 44.8235 9.26087 44.667C9.13913 44.6322 8.81739 44.8496 8.16522 45.3801Z" fill="#23B77F"/>
<path d="M26.8518 49.1437C26.7387 49.6394 26.2518 51.8133 26.1822 52.135C26.0692 52.6133 25.9387 53.1872 25.8257 53.7003C25.7735 53.935 25.617 54.6394 25.4692 55.2655C25.0257 57.2394 24.8431 58.1785 24.904 58.2394C24.9735 58.3176 46.9388 58.3524 47.4344 58.2829L47.8083 58.222L46.1648 55.8742C45.2518 54.5785 43.9735 52.7524 43.3214 51.8133C42.5561 50.7176 42.0518 50.0742 41.9127 50.0133C41.7909 49.9698 41.2866 49.9089 40.7822 49.8829C40.2779 49.8568 39.3387 49.7959 38.6953 49.7437C38.0518 49.7003 36.6779 49.6046 35.6518 49.535C33.5822 49.3872 31.9214 49.2655 30.217 49.135C29.5996 49.0829 28.5909 49.022 27.9909 48.9872L26.8953 48.935L26.8518 49.1437Z" fill="#23B77F"/>
</svg>
