<svg width="60" height="59" viewBox="0 0 60 59" fill="none" xmlns="http://www.w3.org/2000/svg">
<g opacity="0.3">
<path d="M6.0173 0.15467C5.38251 0.467714 5.0086 1.33728 5.2086 2.01554C5.35643 2.51119 5.86077 3.00684 6.33904 3.13728C7.24338 3.38076 8.09556 2.87641 8.33904 1.95467C8.52165 1.25902 8.05208 0.35467 7.36512 0.102496C7.0086 -0.0366344 6.34773 -0.0105476 6.0173 0.15467Z" fill="white"/>
<path d="M20.0871 0.16283C19.9219 0.249786 19.6697 0.475873 19.5219 0.649786C19.2871 0.945439 19.261 1.04109 19.261 1.55413C19.261 2.2237 19.4697 2.615 19.9914 2.96283C20.4262 3.25848 21.2175 3.25848 21.661 2.96283C22.6349 2.31935 22.6871 0.997613 21.774 0.293265C21.3566 -0.019779 20.5392 -0.0893443 20.0871 0.16283Z" fill="white"/>
<path d="M41.0871 0.232734C40.6436 0.528387 40.4697 0.763169 40.3479 1.19795C40.2088 1.67621 40.2871 2.07621 40.6088 2.511C41.4175 3.62404 43.0958 3.31969 43.4697 1.98926C43.661 1.311 43.2784 0.484908 42.6001 0.128386C42.1914 -0.0803094 41.4697 -0.0281353 41.0871 0.232734Z" fill="white"/>
<path d="M2.59129 6.20676C1.7739 6.57198 1.43477 7.54589 1.82607 8.38067C2.15651 9.07633 2.93912 9.43285 3.66086 9.23285C4.11303 9.10241 4.23477 9.02415 4.54781 8.60676C5.13912 7.82415 4.81738 6.58937 3.93912 6.22415C3.5739 6.06763 2.92173 6.06763 2.59129 6.20676Z" fill="white"/>
<path d="M9.60866 6.19793C9.3304 6.34576 8.94779 6.72837 8.81736 6.98054C8.74779 7.11098 8.69562 7.42402 8.69562 7.68489C8.69562 9.11098 10.4347 9.83272 11.4174 8.79793C11.9391 8.25011 12.0434 7.63272 11.7304 6.98054C11.4608 6.42402 10.9043 6.09358 10.2695 6.09358C9.99997 6.09358 9.70431 6.14576 9.60866 6.19793Z" fill="white"/>
<path d="M23.5044 6.31125C22.9914 6.6243 22.7566 7.04169 22.7566 7.65039C22.7566 8.20691 22.9131 8.58082 23.3044 8.91126C24.3479 9.78082 25.9131 9.05908 25.9131 7.70256C25.9131 7.16343 25.8349 6.95473 25.487 6.58952C25.1566 6.2243 24.8435 6.09386 24.3305 6.09386C23.9914 6.09386 23.774 6.15473 23.5044 6.31125Z" fill="white"/>
<path d="M30.5914 6.2678C29.9913 6.58954 29.6696 7.2591 29.7827 7.98084C29.8609 8.48519 30.4087 9.07649 30.9392 9.21562C31.6 9.39823 32.3218 9.14606 32.7131 8.58954C32.8783 8.36345 32.9131 8.19823 32.9131 7.68519C32.9131 7.11997 32.887 7.03301 32.6435 6.73736C32.4957 6.55475 32.2609 6.33736 32.1218 6.2591C31.774 6.0504 31 6.0591 30.5914 6.2678Z" fill="white"/>
<path d="M51.6522 6.27593C50.9653 6.67593 50.6609 7.67593 51.0087 8.39767C51.4348 9.29333 52.7044 9.5542 53.4783 8.91072C54.087 8.39767 54.2261 7.47593 53.7913 6.82376C53.3305 6.11941 52.3479 5.86724 51.6522 6.27593Z" fill="white"/>
<path d="M13.3913 12.2071C12.4522 12.4854 11.9391 13.5115 12.2957 14.3637C12.5305 14.9289 13.2348 15.3984 13.8261 15.3984C14.287 15.3984 14.8696 15.0593 15.1392 14.6245C15.3392 14.3202 15.3913 14.1289 15.3913 13.7637C15.3913 13.2419 15.3131 13.0419 14.9305 12.6332C14.7044 12.3984 13.9652 12.068 13.7478 12.1028C13.7218 12.1115 13.5565 12.155 13.3913 12.2071Z" fill="white"/>
<path d="M20.4435 12.1975C19.8957 12.3192 19.3392 12.9018 19.2609 13.4236C19.1218 14.3627 19.5739 15.0844 20.4609 15.3279C21.4261 15.5801 22.4348 14.7627 22.4348 13.7279C22.4348 13.1018 21.9044 12.3975 21.3044 12.2236C20.9044 12.1192 20.8261 12.1105 20.4435 12.1975Z" fill="white"/>
<path d="M35.9131 12.7804C35.9131 12.8239 36.0435 12.9543 36.2 13.0673C36.5827 13.363 37.8174 14.6413 38.2783 15.2239C39.8348 17.1804 41.2696 19.85 42.2522 22.65C42.4087 23.0847 42.5653 23.476 42.6174 23.5369C42.6783 23.6152 43.6348 23.6326 46.5914 23.6152C48.7305 23.5978 50.5044 23.5804 50.5392 23.5804C50.5653 23.5717 50.6783 23.2934 50.7827 22.9456C51.3392 21.1108 52.8783 18.8673 55.1827 16.5195C55.774 15.9108 56.2609 15.3891 56.2609 15.3543C56.2609 15.2413 53.7479 15.3804 53.0435 15.5282C50.7305 16.0239 48.8174 17.1369 47.5305 18.7195C47.3479 18.9543 47.1653 19.1369 47.1305 19.1369C47.0957 19.1369 46.9566 18.9195 46.8261 18.6413C46.087 17.1456 44.6609 15.5282 43.2261 14.5717C41.7913 13.6152 40.5653 13.1369 38.7827 12.8326C37.974 12.6934 35.9131 12.6586 35.9131 12.7804Z" fill="white"/>
<path d="M9.52179 18.4325C8.73049 18.9195 8.47832 19.763 8.87832 20.5977C9.14788 21.1369 9.60006 21.4151 10.2348 21.4238C11.0001 21.4238 11.5914 21.0325 11.8174 20.363C11.9914 19.8238 11.9218 19.4151 11.5392 18.8499C11.1653 18.3021 10.087 18.076 9.52179 18.4325Z" fill="white"/>
<path d="M16.4696 18.4936C16.0435 18.7892 15.9478 18.9109 15.7739 19.424C15.3304 20.7457 16.8087 21.9109 18.0956 21.2588C18.6435 20.9805 19.0261 20.1979 18.913 19.5892C18.7043 18.4936 17.3652 17.8849 16.4696 18.4936Z" fill="white"/>
<path d="M23.5653 18.4323C23.4 18.5193 23.1479 18.7541 23.0174 18.9541C22.8087 19.2497 22.7653 19.415 22.7653 19.8237C22.7653 20.3976 22.9131 20.7541 23.3044 21.0845C24.0261 21.6932 25.1218 21.528 25.6696 20.7367C25.8609 20.4671 25.9044 20.3019 25.9131 19.8845C25.9131 19.2497 25.687 18.8237 25.1913 18.5019C24.7479 18.215 24.0348 18.1802 23.5653 18.4323Z" fill="white"/>
<path d="M0.0608696 26.0674C0.026087 26.0934 0 28.3978 0 31.1891V36.25L2.08696 37.5804C3.24348 38.3195 4.4 39.0587 4.67826 39.2326C7.52174 41.0413 8.13913 41.4239 8.24348 41.4326C8.31305 41.4413 9.15653 39.8674 10.3652 37.4934L12.3652 33.5369L12.2261 33.2761C12.1565 33.1282 11.9652 32.7891 11.8174 32.5282C11.6609 32.2674 11.4261 31.8326 11.2783 31.5717C11.1304 31.3108 10.6783 30.4847 10.2609 29.7456C9.84348 29.0065 9.35653 28.1195 9.17392 27.7891C8.99131 27.45 8.74783 27.0326 8.63479 26.8587C8.52174 26.6761 8.43479 26.5021 8.43479 26.4587C8.43479 26.4239 8.35653 26.3021 8.26087 26.1978L8.07827 26.0065H4.09565C1.90435 26.0065 0.0869566 26.0326 0.0608696 26.0674Z" fill="white"/>
<path d="M11.0869 26.0926C11.0609 26.1448 11.5478 27.11 12.1826 28.2492C12.8174 29.3796 13.4695 30.5622 13.6348 30.8753C13.8 31.1883 14.0087 31.5448 14.1043 31.6753C14.1913 31.797 14.2609 31.9448 14.2609 31.9883C14.2609 32.2231 14.4174 32.2057 19.6782 31.397C19.9739 31.3535 20.6696 31.2579 21.2174 31.1796C21.7652 31.11 22.4609 31.0057 22.7565 30.9535L23.2956 30.8579L24.7478 28.6057C25.5391 27.3622 26.2 26.284 26.2087 26.197C26.2174 26.0579 25.7391 26.0492 18.6782 26.0231C13.6435 26.0144 11.1217 26.0318 11.0869 26.0926Z" fill="white"/>
<path d="M29.2 26.1543C29.0348 26.3456 25.9478 31.163 25.7652 31.5195C25.6435 31.7543 25.6435 31.7891 25.7826 31.8934C25.8696 31.9543 26.0435 32.0934 26.1652 32.2065C26.2869 32.3108 26.8435 32.7717 27.3913 33.2238C27.9391 33.676 28.4087 34.0673 28.4348 34.0934C28.4782 34.1456 29.7652 35.1978 30.0087 35.3717C30.113 35.4586 30.2 35.4499 30.4435 35.3195C30.6087 35.2325 31.6782 34.6847 32.8261 34.0934C35.8 32.5717 36.5478 32.1717 36.6783 32.0499C36.7739 31.963 36.7739 31.5978 36.7043 30.0847C36.6522 29.0586 36.6087 27.7456 36.6087 27.1717C36.6087 26.2847 36.5826 26.1021 36.4696 26.0586C36.3913 26.0325 34.7565 26.0064 32.8348 26.0064C29.6087 26.0064 29.3217 26.0151 29.2 26.1543Z" fill="white"/>
<path d="M39.0349 26.1108C39.0262 26.389 39.0696 28.4673 39.1218 30.0412L39.174 31.7803L40.3914 32.0151C41.061 32.1456 41.8436 32.2934 42.1305 32.3456C42.861 32.476 44.8349 32.8499 45.8262 33.0499C46.2783 33.1369 46.9131 33.2586 47.2349 33.3195L47.8088 33.4238L48.6697 32.8151C49.1392 32.476 50.0349 31.8238 50.6523 31.363C51.2783 30.9021 52.2175 30.2151 52.7392 29.8325C53.2697 29.4499 54.2262 28.7456 54.8697 28.2673C55.5131 27.789 56.4001 27.1369 56.8349 26.8325C57.2784 26.5195 57.6523 26.2064 57.687 26.1369C57.7305 26.0238 56.661 26.0064 48.3914 26.0064C40.974 26.0064 39.0436 26.0325 39.0349 26.1108Z" fill="white"/>
<path d="M57.8697 29.0674C56.7741 29.8674 55.3219 30.9283 54.6523 31.4153C53.9828 31.9022 53.0089 32.624 52.4784 33.0066C51.9567 33.3979 51.2176 33.937 50.8523 34.2066C50.4784 34.4848 50.1741 34.737 50.1741 34.7805C50.1741 34.824 50.6958 35.2761 51.3306 35.7979C51.9567 36.3109 52.4958 36.7631 52.5219 36.7892C52.548 36.824 52.7828 37.0153 53.0523 37.2327C53.3219 37.4414 53.748 37.7979 54.0089 38.0153C54.2697 38.2327 55.4176 39.1892 56.5654 40.137C57.7132 41.0848 58.9219 42.0848 59.2523 42.3631C59.5828 42.6414 59.8871 42.8501 59.9306 42.824C60.0176 42.7718 60.0263 27.824 59.9306 27.6935C59.8958 27.6327 59.1306 28.137 57.8697 29.0674Z" fill="white"/>
<path d="M23.4696 33.259C23.4522 33.2851 22.7304 33.3981 21.8696 33.5286C20.3652 33.7546 20.0522 33.7981 18.6087 33.9981C18.2522 34.0503 17.7044 34.1286 17.3913 34.1807C17.0783 34.2329 16.3826 34.3286 15.8435 34.3981C15.3044 34.4764 14.7826 34.5633 14.687 34.6068C14.5565 34.6503 13.9565 35.7459 12.5565 38.4938C11.487 40.5894 10.6174 42.3546 10.6087 42.4068C10.6087 42.4677 10.6957 42.5286 10.8087 42.5546C10.9131 42.572 13.2696 43.172 16.0435 43.8764C24.5913 46.0416 25.0783 46.1633 25.1913 46.1199C25.2522 46.0938 25.3044 46.0329 25.3044 45.9807C25.3044 45.9286 25.4783 45.4242 25.6957 44.859C25.9131 44.2938 26.2696 43.3546 26.487 42.7633C26.7044 42.1807 27.0957 41.1546 27.3478 40.4851C27.6 39.8155 27.9739 38.8416 28.1652 38.3286C28.3652 37.8068 28.4957 37.3459 28.4696 37.2938C28.3913 37.172 23.6348 33.2242 23.5652 33.2242C23.5304 33.2242 23.487 33.2416 23.4696 33.259Z" fill="white"/>
<path d="M37.087 34.5981C36.5653 34.8764 35.2522 35.5546 34.174 36.1112C33.0957 36.6677 31.9305 37.2764 31.5914 37.4503L30.9566 37.7807L30.487 39.0068C29.9914 40.3025 29.4435 41.7547 28.9131 43.1807C28.7392 43.659 28.5653 44.1286 28.5218 44.2242C28.4783 44.3199 28.2696 44.859 28.0609 45.4242C27.7131 46.3373 27.687 46.4503 27.8088 46.5199C27.8957 46.5633 28.3914 46.6155 28.9131 46.6416C29.4435 46.6677 30.4174 46.7373 31.087 46.7807C32.8261 46.9025 34.7305 47.0416 35.3914 47.0938C36.5044 47.1807 38.4088 47.3199 39.5653 47.3981C40.2088 47.4416 40.974 47.5025 41.2609 47.5286C41.887 47.6068 41.8957 47.5981 42.2001 46.746C42.3218 46.4068 42.4609 46.0155 42.5218 45.8764C42.687 45.4764 42.7044 45.4242 43.6522 42.9633C44.1392 41.6938 44.5653 40.5807 44.6088 40.4851C45.6609 37.8242 46.4348 35.7199 46.374 35.659C46.3392 35.6242 45.8522 35.5025 45.3044 35.3981C43.2001 34.9981 42.9827 34.9633 42.5218 34.8764C42.2609 34.8242 41.3566 34.6503 40.5218 34.4938C38.0348 34.0068 38.2088 34.0068 37.087 34.5981Z" fill="white"/>
<path d="M48.1913 37.8932C47.9478 38.5106 47.6347 39.3367 47.4782 39.7454C47.3304 40.1541 47.1652 40.5715 47.1217 40.6758C47.0782 40.7888 47.0087 40.9628 46.9652 41.0671C46.9217 41.1802 46.5217 42.2062 46.0869 43.3541C45.6521 44.5019 45.2608 45.5193 45.2173 45.6149C44.5652 47.241 44.0869 48.5367 44.0869 48.6584C44.0869 48.7106 44.2087 48.9367 44.3652 49.1454C44.6782 49.5715 47.026 52.9106 49.1913 56.0062C49.9826 57.128 50.6782 58.1106 50.7478 58.1715C50.9217 58.3628 59.8869 58.3802 59.9565 58.1975C59.9826 58.1367 60 55.3975 60 52.1193V46.1628L59.7217 45.9019C59.5652 45.7541 58.7913 45.1019 58 44.4584C57.2087 43.8062 56.4261 43.1541 56.2521 43.0149C56.0869 42.8671 55.8521 42.6671 55.7304 42.5715C54.7304 41.7454 53.513 40.7367 53.4782 40.7019C53.4521 40.6758 52.5565 39.928 51.4782 39.0497C50.4 38.1715 49.3565 37.3019 49.1565 37.1193C48.9478 36.9367 48.7478 36.7888 48.7043 36.7888C48.6608 36.7888 48.426 37.2845 48.1913 37.8932Z" fill="white"/>
<path d="M0 44.1024C0 47.1198 0.0347826 48.9633 0.0782609 48.9459C0.130435 48.9285 0.704348 48.4677 1.35652 47.9198C2.0087 47.372 2.93044 46.6068 3.39131 46.2242C5.4 44.5633 6.69566 43.459 6.69566 43.4068C6.68696 43.3807 6.4087 43.1807 6.06087 42.972C5.71305 42.7546 4.25218 41.8242 2.8 40.9024C1.35652 39.9807 0.130435 39.2242 0.0869566 39.2242C0.026087 39.2242 0 40.9198 0 44.1024Z" fill="white"/>
<path d="M8.16522 45.3801C7.66087 45.7975 6.31305 46.9192 5.17391 47.8757C4.03478 48.8322 2.82609 49.8409 2.48696 50.1192C2.14783 50.3975 1.77391 50.7105 1.65217 50.8148C1.53044 50.9279 1.11304 51.2757 0.721739 51.6062L0 52.1975V55.2322V58.267L0.373913 58.2757C1.53044 58.3192 21.7478 58.3366 22.0087 58.3018C22.3217 58.2583 22.3304 58.2496 22.4696 57.6322C22.5478 57.2844 22.6522 56.8496 22.6957 56.6583C22.7391 56.467 22.8348 56.0583 22.9044 55.7453C23.1217 54.7366 23.3913 53.5366 23.4783 53.1801C23.5217 52.9888 23.6957 52.1888 23.8696 51.3975C24.0435 50.6062 24.2609 49.6583 24.3478 49.2844C24.4435 48.9105 24.5217 48.5975 24.5217 48.5801C24.5217 48.5279 24.2435 48.4235 23.9131 48.354C23.7478 48.3192 22.2 47.9279 20.4783 47.4844C13.287 45.6583 9.97392 44.8235 9.26087 44.667C9.13913 44.6322 8.81739 44.8496 8.16522 45.3801Z" fill="white"/>
<path d="M26.8522 49.1457C26.7391 49.6413 26.2522 51.8152 26.1826 52.137C26.0695 52.6152 25.9391 53.1892 25.8261 53.7022C25.7739 53.937 25.6174 54.6413 25.4695 55.2674C25.0261 57.2413 24.8435 58.1805 24.9043 58.2413C24.9739 58.3196 46.9391 58.3544 47.4348 58.2848L47.8087 58.2239L46.1652 55.8761C45.2522 54.5805 43.9739 52.7544 43.3217 51.8152C42.5565 50.7196 42.0522 50.0761 41.913 50.0152C41.7913 49.9718 41.2869 49.9109 40.7826 49.8848C40.2782 49.8587 39.3391 49.7979 38.6956 49.7457C38.0522 49.7022 36.6782 49.6066 35.6522 49.537C33.5826 49.3892 31.9217 49.2674 30.2174 49.137C29.6 49.0848 28.5913 49.0239 27.9913 48.9892L26.8956 48.937L26.8522 49.1457Z" fill="white"/>
</g>
</svg>
