<svg width="29" height="28" viewBox="0 0 29 28" fill="none" xmlns="http://www.w3.org/2000/svg">
<path d="M16.1142 0.0310593C14.2872 0.20631 12.3069 0.874458 10.8203 1.82191C10.0486 2.31481 9.71955 2.57221 9.06703 3.18011C5.95764 6.07176 4.78879 10.1737 5.90658 14.2374C6.09382 14.922 6.43994 15.7544 6.85415 16.5047C7.05274 16.8826 7.18891 17.1948 7.18891 17.2988C7.18891 17.4522 6.85415 17.7972 3.99442 20.5684C2.23546 22.2716 0.714813 23.7831 0.61268 23.9255C-0.0284891 24.8456 -0.176015 25.8423 0.215495 26.631C0.380043 26.9705 1.0666 27.6332 1.4184 27.792C2.23546 28.1699 3.26814 28.0275 4.22138 27.4086C4.36891 27.3101 5.93495 25.8423 7.69958 24.1446C10.5707 21.3844 10.9281 21.0612 11.087 21.0612C11.1948 21.0612 11.5182 21.1927 11.9097 21.3844C13.0445 21.9649 14.0262 22.288 15.3709 22.5454C16.1199 22.6878 17.7143 22.7426 18.5314 22.6549C21.2946 22.3647 23.7799 21.1817 25.7147 19.2485C27.4623 17.5014 28.461 15.5463 28.8979 13.0106C29.034 12.2384 29.034 10.4804 28.8979 9.67537C28.4837 7.16161 27.3829 5.05311 25.5785 3.31155C23.7685 1.56999 21.5329 0.480141 18.9853 0.113209C18.259 0.00915337 16.8121 -0.0346603 16.1142 0.0310593ZM18.537 3.04867C19.8931 3.2294 21.3173 3.79897 22.4408 4.61498C26.668 7.66546 27.1503 13.5911 23.4564 17.2221C20.3811 20.2452 15.473 20.5903 11.9892 18.0327C8.1535 15.2177 7.42723 9.9273 10.3664 6.21963C12.2672 3.82088 15.3596 2.6215 18.537 3.04867Z" fill="white"/>
</svg>
