<svg width="22" height="22" viewBox="0 0 22 22" fill="none" xmlns="http://www.w3.org/2000/svg">
<rect width="21.4116" height="21.4116" rx="2.93885" fill="#010101"/>
<path d="M10.5402 5.78888C10.6949 5.47952 11.1364 5.47952 11.2911 5.78888L12.5594 8.32446C12.6205 8.44662 12.7372 8.53142 12.8723 8.55179L15.6757 8.97446C16.0177 9.02603 16.1542 9.44591 15.9078 9.68867L13.8882 11.6784C13.7909 11.7743 13.7463 11.9115 13.7687 12.0462L14.233 14.8431C14.2897 15.1843 13.9325 15.4438 13.6255 15.2845L11.109 13.9786C10.9878 13.9157 10.8435 13.9157 10.7223 13.9786L8.20583 15.2845C7.8988 15.4438 7.54164 15.1843 7.59828 14.8431L8.0626 12.0462C8.08497 11.9115 8.04038 11.7743 7.94308 11.6784L5.92352 9.68867C5.67712 9.44591 5.81355 9.02603 6.15559 8.97446L8.95899 8.55179C9.09406 8.53142 9.21077 8.44662 9.27188 8.32446L10.5402 5.78888Z" fill="#23B77F"/>
</svg>
