<svg width="22" height="22" viewBox="0 0 22 22" fill="none" xmlns="http://www.w3.org/2000/svg">
<rect width="21.4116" height="21.4116" rx="2.93885" fill="white"/>
<path d="M10.5402 5.78876C10.6949 5.4794 11.1364 5.4794 11.2911 5.78876L12.5594 8.32434C12.6205 8.4465 12.7373 8.5313 12.8723 8.55167L15.6757 8.97434C16.0178 9.02591 16.1542 9.44579 15.9078 9.68855L13.8882 11.6783C13.7909 11.7742 13.7463 11.9114 13.7687 12.0461L14.233 14.8429C14.2897 15.1842 13.9325 15.4437 13.6255 15.2843L11.109 13.9785C10.9878 13.9156 10.8435 13.9156 10.7223 13.9785L8.20584 15.2843C7.89882 15.4437 7.54165 15.1842 7.5983 14.8429L8.06261 12.0461C8.08498 11.9114 8.0404 11.7742 7.9431 11.6783L5.92354 9.68855C5.67714 9.44579 5.81356 9.02591 6.1556 8.97434L8.959 8.55167C9.09407 8.5313 9.21079 8.4465 9.27189 8.32434L10.5402 5.78876Z" fill="#23B77F"/>
</svg>
