<svg width="28" height="28" viewBox="0 0 28 28" fill="none" xmlns="http://www.w3.org/2000/svg">
<path d="M5.1234 0.0316687C4.28885 0.150001 3.19895 0.585959 2.50765 1.07174C-1.08591 3.63768 -0.755822 9.0498 3.11799 11.1362C4.60025 11.9334 6.44374 12.0641 8.01319 11.4725C9.88782 10.7687 11.3203 9.08717 11.7251 7.11912C11.8559 6.4901 11.8559 5.33792 11.7313 4.75249C11.2081 2.32357 9.33352 0.504995 6.91706 0.0814924C6.42505 -0.00569916 5.55936 -0.030612 5.1234 0.0316687ZM6.16971 2.92146C6.49979 3.08961 6.5247 3.18303 6.5247 4.2667V5.28187H7.45267C7.95714 5.28187 8.46161 5.313 8.56748 5.35037C8.97853 5.49362 9.09063 6.02922 8.77301 6.34685L8.59239 6.52746H7.55855H6.5247V7.56131V8.59516L6.34409 8.77577C6.02646 9.0934 5.49085 8.98129 5.34761 8.57025C5.31024 8.46437 5.2791 7.9599 5.2791 7.45543V6.52746H4.27017C3.40448 6.52746 3.23632 6.50878 3.12422 6.41536C2.80036 6.16001 2.78168 5.73651 3.07439 5.46248C3.23009 5.31923 3.27369 5.313 4.25148 5.29432L5.27287 5.27564L5.29156 4.25425C5.31024 3.34496 5.3227 3.22663 5.4348 3.10207C5.64655 2.8654 5.92681 2.7969 6.16971 2.92146Z" fill="white"/>
<path d="M21.03 0.0812206C19.2488 0.417532 17.7167 1.53234 16.8634 3.12048C16.2033 4.34116 16.0351 5.54317 16.2718 7.24341C16.5084 8.89383 16.197 10.4384 15.3625 11.8023C14.8892 12.5746 12.728 14.7606 11.9184 15.2775C10.4922 16.1993 8.91029 16.5356 7.19136 16.2678C5.60945 16.0249 4.32026 16.2179 3.11826 16.8657C-0.381875 18.7527 -1.07318 23.5047 1.7481 26.2824C4.57561 29.0663 9.25283 28.3688 11.1337 24.8811C11.7938 23.6604 11.962 22.4584 11.7253 20.7581C11.4887 19.1077 11.8001 17.5632 12.6346 16.1993C12.9087 15.7571 13.2201 15.4021 14.31 14.3122C15.3999 13.2223 15.7549 12.9109 16.197 12.6368C17.561 11.8023 19.1055 11.4909 20.7559 11.7276C22.4562 11.9642 23.6582 11.7961 24.8789 11.1359C26.8905 10.0522 28.105 7.91603 27.9929 5.65527C27.9119 3.96749 27.1023 2.36066 25.8006 1.31436C25.2152 0.841036 24.2685 0.361481 23.5585 0.174641C22.9046 0.000255585 21.6901 -0.0433388 21.03 0.0812206ZM21.3414 4.31002L22.0638 5.02624L22.7925 4.31002C23.4838 3.63117 23.5274 3.60003 23.7765 3.60003C24.144 3.60003 24.3993 3.85538 24.3993 4.22283C24.3993 4.47195 24.3682 4.51555 23.6893 5.20686L22.9731 5.93553L23.6893 6.65798C24.337 7.31814 24.3993 7.39911 24.3993 7.61086C24.3993 7.9098 24.3183 8.05927 24.0754 8.18384C23.7329 8.35822 23.5585 8.27103 22.7987 7.50498L22.0949 6.80745L21.4286 7.47384C21.0549 7.83507 20.6874 8.16515 20.6065 8.20875C20.1767 8.42673 19.6162 7.92849 19.7594 7.44893C19.7844 7.36797 20.1144 6.98806 20.4944 6.60192L21.1857 5.90439L20.4881 5.20063C19.7283 4.44081 19.6411 4.26643 19.8155 3.92389C19.9401 3.681 20.0708 3.60626 20.376 3.60003C20.6065 3.60003 20.6687 3.64363 21.3414 4.31002ZM8.77327 21.655C9.0909 21.9726 8.9788 22.5082 8.56775 22.6515C8.44319 22.6951 7.49653 22.72 5.87103 22.72C3.37983 22.72 3.36738 22.72 3.16185 22.5767C2.80063 22.3338 2.76326 21.9166 3.08089 21.6238L3.24282 21.4744H5.91462H8.59266L8.77327 21.655Z" fill="white"/>
<path d="M21.4907 16.1868C19.3047 16.3861 17.3117 17.9119 16.527 19.9858C16.172 20.9263 16.0599 22.3089 16.2654 23.2493C16.8882 26.1578 19.4479 28.1445 22.3751 27.995C23.2345 27.9514 23.8822 27.7833 24.6794 27.3909C27.4073 26.0581 28.6778 22.9005 27.6377 20.0232C27.1581 18.7091 26.143 17.5507 24.8787 16.8656C23.8386 16.3051 22.7176 16.0809 21.4907 16.1868ZM24.7417 19.8177C25.0033 19.9298 25.1839 20.2599 25.1216 20.509C25.0967 20.6024 25.0033 20.7457 24.9161 20.8266L24.7541 20.9761H22.0823H19.4043L19.2237 20.7955C19.0867 20.6522 19.0431 20.5526 19.0431 20.372C19.0493 20.0979 19.1365 19.9609 19.3918 19.8239C19.6534 19.6869 24.4178 19.6869 24.7417 19.8177ZM24.9223 23.3365C25.0095 23.4175 25.0967 23.5607 25.1154 23.6604C25.1652 23.8908 25.0033 24.2396 24.7977 24.333C24.6919 24.3828 23.8511 24.4015 22.0263 24.4015H19.4043L19.2237 24.2209C18.931 23.9219 18.987 23.4486 19.342 23.2493C19.4853 23.1746 19.9025 23.1621 22.1384 23.1746L24.7604 23.187L24.9223 23.3365Z" fill="white"/>
</svg>
