<svg width="74" height="74" viewBox="0 0 74 74" fill="none" xmlns="http://www.w3.org/2000/svg">
<rect width="74" height="74" rx="37" fill="#25A587"/>
<path d="M23.1141 49C21.9932 49 21.0339 48.6087 20.2364 47.826C19.4375 47.042 19.038 46.1 19.038 45V23C19.038 21.9 19.4375 20.958 20.2364 20.174C21.0339 19.3913 21.9932 19 23.1141 19H50.8859C52.0068 19 52.9667 19.3913 53.7657 20.174C54.5632 20.958 54.962 21.9 54.962 23V45C54.962 46.1 54.5632 47.042 53.7657 47.826C52.9667 48.6087 52.0068 49 50.8859 49H23.1141ZM23.1141 45H50.8859V23H23.1141V45ZM19.038 55C18.4606 55 17.9769 54.808 17.587 54.424C17.1957 54.0413 17 53.5667 17 53C17 52.4333 17.1957 51.9587 17.587 51.576C17.9769 51.192 18.4606 51 19.038 51H54.962C55.5394 51 56.0231 51.192 56.413 51.576C56.8043 51.9587 57 52.4333 57 53C57 53.5667 56.8043 54.0413 56.413 54.424C56.0231 54.808 55.5394 55 54.962 55H19.038Z" fill="white"/>
</svg>
