<svg width="53" height="53" viewBox="0 0 53 53" fill="none" xmlns="http://www.w3.org/2000/svg">
<foreignObject x="-14.3" y="-14.3" width="81.6" height="81.6"><div xmlns="http://www.w3.org/1999/xhtml" style="backdrop-filter:blur(7.15px);clip-path:url(#bgblur_0_1_1035_clip_path);height:100%;width:100%"></div></foreignObject><circle data-figma-bg-blur-radius="14.3" cx="26.5" cy="26.5" r="25.5" fill="url(#paint0_linear_1_1035)" fill-opacity="0.5" stroke="#B1B1B1" stroke-width="2"/>
<path opacity="0.3" d="M37.7071 27.7071C38.0976 27.3166 38.0976 26.6834 37.7071 26.2929L31.3431 19.9289C30.9526 19.5384 30.3195 19.5384 29.9289 19.9289C29.5384 20.3195 29.5384 20.9526 29.9289 21.3431L35.5858 27L29.9289 32.6569C29.5384 33.0474 29.5384 33.6805 29.9289 34.0711C30.3195 34.4616 30.9526 34.4616 31.3431 34.0711L37.7071 27.7071ZM17 27V28H37V27V26H17V27Z" fill="#010101"/>
<defs>
<clipPath id="bgblur_0_1_1035_clip_path" transform="translate(14.3 14.3)"><circle cx="26.5" cy="26.5" r="25.5"/>
</clipPath><linearGradient id="paint0_linear_1_1035" x1="26.5" y1="-5.05878e-07" x2="34.9872" y2="34.5583" gradientUnits="userSpaceOnUse">
<stop stop-color="white" stop-opacity="0.1"/>
<stop offset="1" stop-opacity="0"/>
</linearGradient>
</defs>
</svg>
