<svg width="31" height="31" viewBox="0 0 31 31" fill="none" xmlns="http://www.w3.org/2000/svg">
<path d="M14.0969 0.0375614C9.47951 0.515829 5.4172 2.97802 2.87234 6.85139C0.386535 10.6303 -0.239345 15.4661 1.19546 19.8118C1.96304 22.1382 3.17347 24.0867 4.92121 25.8167C7.33617 28.2022 10.1999 29.6015 13.6835 30.0975C14.3862 30.1979 16.7067 30.192 17.4329 30.0916C20.8989 29.6134 23.8866 28.1313 26.272 25.7105C27.0219 24.9488 27.4293 24.4646 27.9666 23.6852C29.3424 21.7072 30.1867 19.5048 30.5528 16.9481C30.6532 16.2514 30.6532 13.925 30.5528 13.2283C30.0509 9.70918 28.5984 6.76282 26.1657 4.34787C23.857 2.05691 20.9284 0.604397 17.6396 0.114321C16.9133 0.00803947 14.8172 -0.039196 14.0969 0.0375614ZM22.5994 9.14825C22.8592 9.26044 22.9832 9.50843 22.9832 9.92175C22.9832 10.2465 20.5977 21.6659 20.4088 22.2445C20.2435 22.7582 19.8006 22.953 19.3047 22.7405C19.1984 22.6932 18.2714 22.0319 17.2322 21.2703L16.5405 20.7586C15.8513 20.2487 14.8954 20.3076 14.274 20.8983C13.5005 21.6304 13.1403 21.9375 13.0104 21.967C12.9041 21.9906 12.8038 21.9965 12.786 21.9788C12.7624 21.9552 12.9809 18.501 13.0222 18.2294C13.0281 18.1881 14.6283 16.712 16.5768 14.9465C18.5253 13.187 20.1195 11.7108 20.1195 11.6636C20.1195 11.6045 20.0545 11.575 19.9128 11.575C19.7416 11.575 18.9327 12.0651 15.3309 14.3383C12.9219 15.8558 10.9202 17.0958 10.8848 17.0958C10.7195 17.0958 6.9937 15.8971 6.81657 15.7849C6.58039 15.6432 6.52134 15.4366 6.65124 15.2299C6.78705 15.0292 7.02323 14.8934 7.71996 14.6218C8.74735 14.2202 21.5248 9.28996 21.8318 9.17778C22.192 9.04788 22.3396 9.04197 22.5994 9.14825Z" fill="#BFBFBF"/>
</svg>
