<svg width="59" height="59" viewBox="0 0 59 59" fill="none" xmlns="http://www.w3.org/2000/svg">
<path d="M15.6568 0.176594C13.2506 0.689289 10.816 2.41495 9.73391 4.3782C9.03625 5.65368 8.72302 6.79162 8.72302 8.19215C8.72302 8.75487 8.66607 9.24255 8.60912 9.28007C8.53793 9.31758 7.98266 9.39261 7.35619 9.46764C4.90729 9.73024 2.87129 10.7806 1.50446 12.4563C-0.460353 14.8697 -0.503066 18.1084 1.39056 20.6094C1.73227 21.0596 2.24483 21.6223 2.51535 21.8474C2.8001 22.085 3.02791 22.3476 3.02791 22.4351C3.02791 22.5226 2.61501 22.9353 2.11669 23.3604C0.62172 24.6234 0.00949458 25.8739 0.0237324 27.6496C0.0379702 30.9759 3.17028 33.5518 6.9433 33.3393C7.51281 33.3017 8.08232 33.3268 8.21046 33.3893C8.4525 33.5143 8.52369 33.9895 8.31013 34.1896C7.9969 34.4647 7.584 35.9027 7.584 36.7155C7.584 38.5162 8.43827 40.0043 10.1468 41.1297C11.8269 42.2427 14.4324 42.4427 16.3687 41.6049L17.3369 41.1797V38.1161C17.3369 35.4401 17.3084 34.9649 17.0664 34.3646C16.4684 32.8391 15.5856 31.7011 14.2046 30.7007C13.7347 30.3631 13.2934 30.0005 13.2364 29.9004C13.0371 29.6128 13.2649 29.2377 13.6351 29.2377C14.233 29.2377 16.4826 31.0759 17.1091 32.0513C17.3226 32.4139 17.3369 32.3389 17.4081 30.063C17.465 27.9872 17.5077 27.6871 17.7355 27.562C17.9064 27.462 18.0488 27.462 18.2339 27.562C18.4617 27.6996 18.4759 28.4124 18.5186 39.4791L18.5471 51.2461L19.0169 51.0335C19.259 50.921 19.8 50.7584 20.1844 50.6834L20.8963 50.5333L20.9675 39.1165C21.0387 28.4249 21.0529 27.6871 21.2808 27.562C21.4658 27.462 21.6082 27.462 21.7791 27.562C22.0069 27.6871 22.0354 28.0622 22.1065 31.6761L22.1777 35.6401L22.733 34.9399C23.3452 34.1646 24.7405 32.9641 25.3955 32.6765C25.7087 32.5264 25.8796 32.5139 26.0931 32.614C26.5914 32.8516 26.4206 33.2017 25.5663 33.7644C23.9859 34.8148 22.6191 36.6155 22.2632 38.0911C22.1777 38.4537 22.1065 39.1415 22.1065 39.6167C22.1065 40.4295 22.135 40.492 22.5764 40.8171C22.8184 41.0047 23.5018 41.3548 24.0714 41.5924C26.4633 42.5928 29.5387 42.1551 31.5177 40.5295C32.372 39.8292 32.97 39.0164 33.3686 38.0411C33.7388 37.1282 33.7815 35.3525 33.4541 34.4522C33.1124 33.5018 33.1835 33.4393 34.8351 33.3142C35.9172 33.2392 37.284 32.6515 37.9817 31.9762C40.0177 29.988 39.6902 26.9493 37.2556 25.3362C36.8142 25.0486 36.4867 24.736 36.4867 24.6109C36.4867 24.4609 36.7999 24.2108 37.341 23.9232C41.5411 21.6848 41.1994 16.3578 36.7145 14.5446C36.1308 14.307 35.6324 14.0444 35.5897 13.9569C35.5613 13.8693 35.7036 13.4817 35.9172 13.1065C36.5009 12.0936 36.7715 11.1683 36.7715 10.2429C36.7572 6.81663 33.4541 4.1281 29.5814 4.3907C29.0403 4.42822 28.2288 4.57827 27.8017 4.71582C27.3745 4.86588 26.9189 4.97842 26.7765 4.97842C26.6342 4.97842 26.3352 4.6533 26.0077 4.1281C25.2389 2.91514 23.4734 1.41457 22.1065 0.826839C21.5228 0.56424 20.6258 0.27663 20.1133 0.176594C18.9742 -0.060997 16.7674 -0.060997 15.6568 0.176594Z" fill="#23B77F"/>
<path d="M42.6519 12.0441C41.5129 12.3192 40.3169 12.8944 39.4199 13.6072L38.6226 14.2574L39.4199 15.0202C40.9861 16.5083 41.7122 18.5216 41.3563 20.3848C41.0858 21.7353 40.4593 22.7732 39.2633 23.8236L38.2382 24.7239L38.6511 25.0741C39.7189 25.9744 40.4735 27.5625 40.4735 28.9255C40.4735 31.5015 38.3948 33.7274 35.5188 34.2526L34.636 34.4151L34.7499 34.9153C35.1628 36.9536 34.4082 39.2545 32.8278 40.7551C32.4149 41.1427 32.0732 41.5303 32.0732 41.6054C32.0732 41.9555 32.8136 42.9809 33.4543 43.5061C35.1771 44.9191 37.6972 45.2443 39.7474 44.3064C41.043 43.7062 41.1 43.6437 41.0003 42.6558C40.858 41.0677 39.961 39.6546 38.4375 38.6042C37.5975 38.0165 37.4409 37.8414 37.569 37.5663C37.8395 36.9536 38.7792 37.3663 40.203 38.7168L41.043 39.5296V36.5159C41.043 33.6398 41.0573 33.4898 41.3278 33.3647C41.5414 33.2647 41.6695 33.2897 41.8973 33.4898C42.1821 33.7399 42.1821 33.8649 42.1821 43.9563V54.1852L42.8797 54.7104C43.3923 55.098 43.6059 55.1981 43.734 55.0855C43.8479 54.9855 43.8906 52.0844 43.8906 44.2939C43.8906 34.7653 43.9191 33.6148 44.1184 33.4398C44.3747 33.2022 44.4032 33.2022 44.7591 33.3647C45.0012 33.4898 45.0296 33.6523 45.0296 35.2529V37.0161L45.6561 36.3409C46.667 35.2529 47.7775 34.5652 48.1904 34.7528C48.6745 34.9778 48.4894 35.403 47.6494 36.0282C46.2541 37.0536 45.4995 38.0915 45.1862 39.342C45.1008 39.7046 45.0296 40.9176 45.0296 42.043V44.0688L45.6703 44.3564C48.1904 45.4568 51.2373 44.569 52.419 42.3682C52.9316 41.4178 52.9458 39.9923 52.4475 39.0044C51.9492 38.0415 52.0631 37.929 53.6577 37.9165C55.2524 37.8915 56.2775 37.5663 57.2741 36.7785C58.4986 35.8032 58.9969 34.8778 58.9969 33.4773C58.9969 32.2393 58.5698 31.3765 57.4735 30.3761C56.9751 29.9259 56.5622 29.5133 56.5622 29.4507C56.5622 29.3882 56.8897 29.0256 57.2884 28.6379C58.2281 27.7001 58.826 26.6247 58.9542 25.6118C59.3671 22.398 56.9751 19.772 53.2591 19.3594C52.718 19.3094 52.1912 19.1843 52.0773 19.1093C51.9207 18.9967 51.8638 18.6841 51.8638 18.0464C51.8638 15.2203 49.543 12.7193 46.2826 12.0441C45.172 11.819 43.6343 11.819 42.6519 12.0441Z" fill="#23B77F"/>
<path d="M19.9993 51.7347C18.1057 52.36 16.6819 53.9106 16.4541 55.6237C16.3402 56.499 16.0982 56.5866 15.0304 56.1489C13.4927 55.5237 11.6702 55.7488 10.4031 56.7366C9.83356 57.1743 9.15015 58.2497 9.15015 58.7124V59H30.5923H52.0344L51.9347 58.6499C51.7354 57.9246 51.1516 56.9867 50.5536 56.474C49.6424 55.6612 48.7454 55.3361 47.3501 55.2736C46.026 55.2111 45.2572 55.3861 44.289 55.9738C43.9473 56.1739 43.5914 56.374 43.4917 56.424C43.3778 56.4865 43.0361 56.2615 42.5378 55.8238C41.5696 54.961 40.8008 54.5608 39.619 54.2982C37.9817 53.9356 36.1877 54.2982 34.8636 55.2486C34.4934 55.5237 34.0948 55.7488 33.9951 55.7488C33.8954 55.7488 33.4968 55.4737 33.0981 55.136C32.1584 54.3357 31.3896 54.0856 30.037 54.1356C29.14 54.1857 28.8695 54.2482 28.2145 54.6108C27.3033 55.0985 27.1894 55.061 26.6342 54.1231C26.0789 53.1853 25.0822 52.335 24.0429 51.9223C22.8754 51.4596 21.1099 51.3721 19.9993 51.7347Z" fill="#23B77F"/>
</svg>
