<svg width="59" height="59" viewBox="0 0 59 59" fill="none" xmlns="http://www.w3.org/2000/svg">
<g opacity="0.3">
<path d="M15.6568 0.17757C13.2506 0.690266 10.816 2.41592 9.73391 4.37917C9.03625 5.65466 8.72302 6.79259 8.72302 8.19313C8.72302 8.75584 8.66607 9.24353 8.60912 9.28104C8.53793 9.31856 7.98266 9.39359 7.35619 9.46862C4.90729 9.73122 2.87129 10.7816 1.50446 12.4573C-0.460353 14.8707 -0.503066 18.1094 1.39056 20.6104C1.73227 21.0605 2.24483 21.6233 2.51535 21.8483C2.8001 22.0859 3.02791 22.3485 3.02791 22.4361C3.02791 22.5236 2.61501 22.9363 2.11669 23.3614C0.62172 24.6244 0.00949458 25.8749 0.0237324 27.6506C0.0379702 30.9768 3.17028 33.5528 6.9433 33.3402C7.51281 33.3027 8.08232 33.3277 8.21046 33.3903C8.4525 33.5153 8.52369 33.9905 8.31013 34.1906C7.9969 34.4657 7.584 35.9037 7.584 36.7165C7.584 38.5172 8.43827 40.0053 10.1468 41.1307C11.8269 42.2436 14.4324 42.4437 16.3687 41.6059L17.3369 41.1807V38.1171C17.3369 35.441 17.3084 34.9659 17.0664 34.3656C16.4684 32.84 15.5856 31.7021 14.2046 30.7017C13.7347 30.3641 13.2934 30.0015 13.2364 29.9014C13.0371 29.6138 13.2649 29.2387 13.6351 29.2387C14.233 29.2387 16.4826 31.0769 17.1091 32.0522C17.3226 32.4149 17.3369 32.3398 17.4081 30.064C17.465 27.9882 17.5077 27.6881 17.7355 27.563C17.9064 27.463 18.0488 27.463 18.2339 27.563C18.4617 27.7006 18.4759 28.4134 18.5186 39.4801L18.5471 51.2471L19.0169 51.0345C19.259 50.9219 19.8 50.7594 20.1844 50.6844L20.8963 50.5343L20.9675 39.1174C21.0387 28.4259 21.0529 27.6881 21.2808 27.563C21.4658 27.463 21.6082 27.463 21.7791 27.563C22.0069 27.6881 22.0354 28.0632 22.1065 31.6771L22.1777 35.6411L22.733 34.9408C23.3452 34.1655 24.7405 32.9651 25.3955 32.6775C25.7087 32.5274 25.8796 32.5149 26.0931 32.615C26.5914 32.8525 26.4206 33.2027 25.5663 33.7654C23.9859 34.8158 22.6191 36.6165 22.2632 38.092C22.1777 38.4547 22.1065 39.1424 22.1065 39.6176C22.1065 40.4304 22.135 40.493 22.5764 40.8181C22.8184 41.0057 23.5018 41.3558 24.0714 41.5934C26.4633 42.5938 29.5387 42.1561 31.5177 40.5305C32.372 39.8302 32.97 39.0174 33.3686 38.042C33.7388 37.1292 33.7815 35.3535 33.4541 34.4532C33.1124 33.5028 33.1835 33.4403 34.8351 33.3152C35.9172 33.2402 37.284 32.6525 37.9817 31.9772C40.0177 29.989 39.6902 26.9503 37.2556 25.3372C36.8142 25.0496 36.4867 24.7369 36.4867 24.6119C36.4867 24.4618 36.7999 24.2117 37.341 23.9241C41.5411 21.6858 41.1994 16.3587 36.7145 14.5456C36.1308 14.308 35.6324 14.0454 35.5897 13.9578C35.5613 13.8703 35.7036 13.4827 35.9172 13.1075C36.5009 12.0946 36.7715 11.1693 36.7715 10.2439C36.7572 6.8176 33.4541 4.12908 29.5814 4.39168C29.0403 4.42919 28.2288 4.57925 27.8017 4.7168C27.3745 4.86686 26.9189 4.9794 26.7765 4.9794C26.6342 4.9794 26.3352 4.65428 26.0077 4.12908C25.2389 2.91611 23.4734 1.41554 22.1065 0.827816C21.5228 0.565216 20.6258 0.277607 20.1133 0.17757C18.9742 -0.0600204 16.7674 -0.0600204 15.6568 0.17757Z" fill="white"/>
<path d="M42.6517 12.0441C41.5127 12.3192 40.3167 12.8944 39.4197 13.6072L38.6224 14.2574L39.4197 15.0202C40.9859 16.5083 41.712 18.5216 41.356 20.3848C41.0855 21.7353 40.4591 22.7732 39.2631 23.8236L38.238 24.7239L38.6509 25.0741C39.7187 25.9744 40.4733 27.5625 40.4733 28.9255C40.4733 31.5015 38.3946 33.7274 35.5185 34.2526L34.6358 34.4151L34.7497 34.9153C35.1626 36.9536 34.408 39.2545 32.8276 40.7551C32.4147 41.1427 32.073 41.5303 32.073 41.6054C32.073 41.9555 32.8134 42.9809 33.4541 43.5061C35.1768 44.9191 37.6969 45.2443 39.7472 44.3064C41.0428 43.7062 41.0998 43.6437 41.0001 42.6558C40.8577 41.0677 39.9607 39.6546 38.4373 38.6042C37.5973 38.0165 37.4406 37.8414 37.5688 37.5663C37.8393 36.9536 38.779 37.3663 40.2028 38.7168L41.0428 39.5296V36.5159C41.0428 33.6398 41.057 33.4898 41.3276 33.3647C41.5411 33.2647 41.6693 33.2897 41.8971 33.4898C42.1818 33.7399 42.1818 33.8649 42.1818 43.9563V54.1852L42.8795 54.7104C43.392 55.098 43.6056 55.1981 43.7337 55.0855C43.8477 54.9855 43.8904 52.0844 43.8904 44.2939C43.8904 34.7653 43.9188 33.6148 44.1182 33.4398C44.3744 33.2022 44.4029 33.2022 44.7589 33.3647C45.0009 33.4898 45.0294 33.6523 45.0294 35.2529V37.0161L45.6559 36.3409C46.6667 35.2529 47.7773 34.5652 48.1902 34.7528C48.6743 34.9778 48.4892 35.403 47.6491 36.0282C46.2538 37.0536 45.4992 38.0915 45.186 39.342C45.1006 39.7046 45.0294 40.9176 45.0294 42.043V44.0688L45.6701 44.3564C48.1902 45.4568 51.2371 44.569 52.4188 42.3682C52.9314 41.4178 52.9456 39.9923 52.4473 39.0044C51.949 38.0415 52.0629 37.929 53.6575 37.9165C55.2521 37.8915 56.2772 37.5663 57.2739 36.7785C58.4983 35.8032 58.9967 34.8778 58.9967 33.4773C58.9967 32.2393 58.5695 31.3765 57.4732 30.3761C56.9749 29.9259 56.562 29.5133 56.562 29.4507C56.562 29.3882 56.8895 29.0256 57.2881 28.6379C58.2278 27.7001 58.8258 26.6247 58.9539 25.6118C59.3668 22.398 56.9749 19.772 53.2588 19.3594C52.7178 19.3094 52.191 19.1843 52.0771 19.1093C51.9205 18.9967 51.8635 18.6841 51.8635 18.0464C51.8635 15.2203 49.5428 12.7193 46.2823 12.0441C45.1718 11.819 43.6341 11.819 42.6517 12.0441Z" fill="white"/>
<path d="M19.9994 51.7347C18.1058 52.36 16.682 53.9106 16.4542 55.6237C16.3403 56.499 16.0982 56.5866 15.0304 56.1489C13.4927 55.5237 11.6703 55.7488 10.4031 56.7366C9.83362 57.1743 9.15021 58.2497 9.15021 58.7124V59H30.5923H52.0344L51.9348 58.6499C51.7354 57.9246 51.1517 56.9867 50.5537 56.474C49.6425 55.6612 48.7455 55.3361 47.3502 55.2736C46.0261 55.2111 45.2572 55.3861 44.2891 55.9738C43.9474 56.1739 43.5914 56.374 43.4918 56.424C43.3779 56.4865 43.0361 56.2615 42.5378 55.8238C41.5697 54.961 40.8008 54.5608 39.6191 54.2982C37.9817 53.9356 36.1878 54.2982 34.8637 55.2486C34.4935 55.5237 34.0948 55.7488 33.9952 55.7488C33.8955 55.7488 33.4968 55.4737 33.0982 55.136C32.1585 54.3357 31.3896 54.0856 30.037 54.1356C29.1401 54.1857 28.8695 54.2482 28.2146 54.6108C27.3034 55.0985 27.1895 55.061 26.6342 54.1231C26.0789 53.1853 25.0823 52.335 24.0429 51.9223C22.8754 51.4596 21.11 51.3721 19.9994 51.7347Z" fill="white"/>
</g>
</svg>
