<svg width="31" height="31" viewBox="0 0 31 31" fill="none" xmlns="http://www.w3.org/2000/svg">
<path d="M14.648 0.0152817C10.4478 0.398186 6.67182 2.39518 4.08575 5.60567C2.7662 7.24332 1.72353 9.32279 1.21691 11.3492C0.739758 13.2402 0.621941 15.3609 0.892919 17.1811C1.38186 20.4682 2.88991 23.4549 5.22857 25.7641C6.45386 26.9717 7.59668 27.7905 9.11651 28.5445C10.601 29.2868 12.1562 29.7698 13.7938 29.9996C14.7128 30.1351 16.8571 30.1527 17.6818 30.0349C19.5492 29.7698 21.0984 29.2868 22.7066 28.468C24.9982 27.2957 27.0187 25.4813 28.4502 23.3076C28.9215 22.5889 29.6873 21.0573 29.9995 20.2149C30.2764 19.455 30.6298 18.053 30.7653 17.1517C30.8949 16.2799 30.9185 14.0237 30.8006 13.2048C30.4354 10.6482 29.593 8.45683 28.2205 6.48341C27.6844 5.70582 27.2779 5.22277 26.5298 4.46285C24.197 2.09474 21.2634 0.616146 17.9174 0.121317C17.346 0.0388451 15.1841 -0.0318451 14.648 0.0152817ZM16.969 10.3183C17.0986 10.3831 17.2576 10.5127 17.3224 10.6011C17.4402 10.7601 17.4461 10.8426 17.4461 12.7218C17.452 14.7895 17.4874 15.0958 17.7171 15.2607C17.8762 15.3727 17.9822 15.3314 18.2885 15.0369C18.9836 14.3771 19.8908 12.9515 20.4328 11.6614C20.5977 11.2609 20.798 10.8662 20.8746 10.7896C21.069 10.5952 21.4283 10.5658 23.2781 10.5952C25.2986 10.6188 25.3988 10.6718 25.1396 11.5083C24.9687 12.0738 24.6388 12.604 23.4783 14.1768C22.1765 15.9559 22.0763 16.1444 22.2531 16.4919C22.2943 16.5626 22.7656 17.0692 23.3075 17.623C24.25 18.5832 24.898 19.3666 25.1396 19.8379C25.3516 20.262 25.2397 20.6567 24.8332 20.8629C24.5976 20.9866 23.6492 21.0279 22.3532 20.9689C20.8569 20.8924 20.8039 20.8688 19.6199 19.6258C18.695 18.648 18.477 18.4771 18.1943 18.4771C17.8349 18.4771 17.7289 18.6951 17.5345 19.832C17.3872 20.6744 17.2871 20.804 16.7098 20.8983C16.2739 20.9689 15.243 20.9277 14.6127 20.804C12.0914 20.321 10.171 18.483 7.9678 14.4301C7.36104 13.3109 6.40084 11.2432 6.40084 11.0488C6.40084 10.9663 6.45975 10.8249 6.52455 10.7366C6.60644 10.6361 6.72966 10.5784 6.8593 10.5798L8.25056 10.5952C10.3065 10.6188 10.2358 10.5834 10.7542 11.791C11.2726 12.9751 12.1974 14.4949 12.7453 15.0428C13.3049 15.6083 13.5582 15.4316 13.7172 14.3594C13.7879 13.8587 13.7408 12.0326 13.6466 11.6968C13.57 11.4258 13.3167 11.1902 12.9632 11.0665C12.7865 11.0017 12.6687 10.9192 12.6569 10.8603C12.6098 10.6305 12.9455 10.336 13.3815 10.2241C13.4816 10.2005 14.2769 10.1828 15.1487 10.1887C16.6096 10.2005 16.7569 10.2123 16.969 10.3183Z" fill="#BFBFBF"/>
</svg>
