<svg width="31" height="31" viewBox="0 0 31 31" fill="none" xmlns="http://www.w3.org/2000/svg">
<path d="M14.023 0.0152817C9.82284 0.398186 6.04682 2.39518 3.46075 5.60567C2.1412 7.24332 1.09853 9.32279 0.591915 11.3492C0.114758 13.2402 -0.00305851 15.3609 0.267919 17.1811C0.756858 20.4682 2.26491 23.4549 4.60357 25.7641C5.82886 26.9717 6.97168 27.7905 8.49151 28.5445C9.976 29.2868 11.5312 29.7698 13.1688 29.9996C14.0878 30.1351 16.2321 30.1527 17.0568 30.0349C18.9242 29.7698 20.4734 29.2868 22.0816 28.468C24.3732 27.2957 26.3937 25.4813 27.8252 23.3076C28.2965 22.5889 29.0623 21.0573 29.3745 20.2149C29.6514 19.455 30.0048 18.053 30.1403 17.1517C30.2699 16.2799 30.2935 14.0237 30.1756 13.2048C29.8104 10.6482 28.968 8.45683 27.5955 6.48341C27.0594 5.70582 26.6529 5.22277 25.9048 4.46285C23.572 2.09474 20.6384 0.616146 17.2924 0.121317C16.721 0.0388451 14.5591 -0.0318451 14.023 0.0152817ZM16.3793 5.7176C17.5516 5.87665 18.4352 6.15352 19.5074 6.70726C21.6752 7.82063 23.3364 9.78816 24.0845 12.115C25.1625 15.4846 24.2907 19.0898 21.793 21.5934C19.1186 24.2796 15.0362 25.0631 11.5076 23.5668C11.1978 23.4329 10.8531 23.4025 10.5246 23.48L8.60933 23.932C6.28245 24.4799 6.1882 24.4976 6.04093 24.4033C5.94667 24.3385 5.89366 24.2501 5.89366 24.1441C5.89366 24.0557 6.11162 22.9306 6.3767 21.6346C6.85386 19.3136 6.85975 19.2842 6.7655 19.0426C6.71248 18.913 6.5711 18.5478 6.45329 18.2415C5.2869 15.2431 5.8642 11.685 7.93777 9.11072C9.95244 6.61301 13.2277 5.29935 16.3793 5.7176Z" fill="#BFBFBF"/>
<path d="M14.4883 7.69604C12.4913 7.87865 10.5473 8.98024 9.32789 10.6238C7.66668 12.8623 7.43105 15.8195 8.70935 18.3702C8.89633 18.7442 8.95197 19.1702 8.86732 19.5796L8.70935 20.3436C8.5503 21.1094 8.43249 21.7692 8.43838 21.8105C8.45016 21.8517 8.90964 21.7692 9.86985 21.5395L10.6762 21.348C11.0688 21.2547 11.4816 21.3016 11.8433 21.4806C12.8506 21.9813 13.746 22.2228 14.824 22.2876C16.7857 22.3995 18.7709 21.6691 20.22 20.3083C22.5705 18.0992 23.189 14.553 21.7222 11.6841C20.7266 9.73426 18.9417 8.33814 16.8151 7.84331C16.4499 7.76084 15.3483 7.63124 15.1186 7.64302C15.0538 7.64891 14.7651 7.67247 14.4883 7.69604ZM12.4029 10.5472C12.6268 10.6415 12.6798 10.7357 13.2041 11.9198C13.3926 12.3616 13.5516 12.8034 13.5516 12.9153C13.5516 13.0567 13.4691 13.2157 13.2276 13.5338C12.8329 14.0522 12.8094 14.2407 13.0862 14.6826C13.3101 15.0419 14.3763 16.0964 14.9654 16.5441C15.8844 17.2392 16.2908 17.41 16.6325 17.2333C16.7032 17.1979 16.9094 17.0212 17.092 16.8504C17.5456 16.4027 17.6045 16.4027 18.8534 16.762C19.737 17.0153 19.9078 17.0801 20.0492 17.2392C20.1611 17.3688 20.2082 17.4807 20.2082 17.6456C20.2082 18.1287 19.3423 19.1125 18.6943 19.3658C18.2407 19.5425 17.2098 19.5543 16.5854 19.3952C14.5766 18.865 11.9905 16.6913 10.9714 14.6767C10.6474 14.0287 10.5178 13.5103 10.5178 12.8211C10.5178 12.2379 10.5296 12.179 10.7122 11.8078C10.8301 11.5604 11.0539 11.2659 11.3131 11.0008C11.8433 10.4529 12.0082 10.3823 12.4029 10.5472Z" fill="#BFBFBF"/>
</svg>
